<?xml version="1.0" standalone="no"?>
<!DOCTYPE svg PUBLIC "-//W3C//DTD SVG 20010904//EN"
 "http://www.w3.org/TR/2001/REC-SVG-20010904/DTD/svg10.dtd">
<svg version="1.0" xmlns="http://www.w3.org/2000/svg"
 width="500.000000pt" height="500.000000pt" viewBox="0 0 500.000000 500.000000"
 preserveAspectRatio="xMidYMid meet">
<metadata>
Created by potrace 1.11, written by Peter Selinger 2001-2013
</metadata>
<g transform="translate(0.000000,500.000000) scale(0.100000,-0.100000)"
fill="#000000" stroke="none">
<path d="M2257 4408 c-100 -101 -142 -213 -132 -349 8 -113 48 -199 132 -282
48 -49 144 -103 198 -113 16 -3 31 -7 33 -9 2 -2 -29 -68 -68 -147 -72 -144
-72 -144 -128 -173 -64 -34 -127 -92 -165 -152 -33 -53 -67 -152 -67 -198 l0
-35 -367 -1 c-382 -1 -383 -1 -473 -13 -140 -20 -263 -61 -398 -133 -287 -154
-497 -413 -591 -731 -17 -57 -33 -107 -36 -112 -2 -4 -20 -11 -39 -14 -48 -9
-121 -77 -142 -131 -30 -80 -8 -180 53 -241 24 -24 80 -54 111 -58 20 -3 28
-18 41 -78 21 -99 83 -244 153 -358 112 -183 340 -375 548 -463 111 -46 177
-65 300 -85 58 -9 2498 -9 2565 0 28 4 57 9 65 12 8 3 26 7 40 10 55 9 189 60
273 103 230 119 431 329 541 564 31 67 44 102 88 248 7 24 20 45 28 46 31 5
86 34 114 60 58 57 79 142 55 230 -14 53 -92 129 -144 141 -45 11 -45 12 -80
134 -75 269 -263 520 -504 675 -163 104 -316 158 -536 189 -16 2 -200 5 -407
5 l-378 1 0 33 c0 129 -103 284 -235 353 -52 27 -55 32 -121 164 -38 74 -70
138 -72 143 -2 4 21 7 50 7 69 0 154 22 219 57 48 26 166 140 155 150 -2 2
-19 -3 -38 -13 -283 -146 -638 86 -624 408 4 85 8 101 35 164 12 26 19 49 16
52 -2 3 -33 -24 -68 -60z"/>
</g>
</svg>
